<svg width="948" height="635" viewBox="0 0 948 635" fill="none" xmlns="http://www.w3.org/2000/svg">
<rect y="38" width="948" height="586" rx="25" fill="black"/>
<g clip-path="url(#clip0_103_6)">
<path d="M258.176 190.662C258.176 184.654 251.421 179.783 243.088 179.783C234.755 179.783 228 184.654 228 190.662V277.688C228 283.696 234.755 288.567 243.088 288.567C251.421 288.567 258.176 283.696 258.176 277.688V190.662Z" fill="white"/>
<path d="M311.4 212.418C311.4 206.41 304.645 201.54 296.312 201.54C287.979 201.54 281.224 206.41 281.224 212.418V251.58C281.224 257.588 287.979 262.459 296.312 262.459C304.645 262.459 311.4 257.588 311.4 251.58V212.418Z" fill="white"/>
<path d="M364.624 195.013C364.624 189.005 357.869 184.135 349.537 184.135C341.204 184.135 334.449 189.005 334.449 195.013V273.337C334.449 279.345 341.204 284.215 349.537 284.215C357.869 284.215 364.624 279.345 364.624 273.337V195.013Z" fill="white"/>
<path d="M417.849 134.094C417.849 128.086 411.094 123.216 402.761 123.216C394.428 123.216 387.673 128.086 387.673 134.094V334.256C387.673 340.264 394.428 345.134 402.761 345.134C411.094 345.134 417.849 340.264 417.849 334.256V134.094Z" fill="white"/>
<path d="M471.073 81.8783C471.073 75.8704 464.318 71 455.985 71C447.653 71 440.898 75.8704 440.898 81.8783V395.175C440.898 401.182 447.653 406.053 455.985 406.053C464.318 406.053 471.073 401.182 471.073 395.175V81.8783Z" fill="white"/>
<path d="M524.298 107.986C524.298 101.978 517.543 97.108 509.21 97.108C500.877 97.108 494.122 101.978 494.122 107.986V360.364C494.122 366.372 500.877 371.242 509.21 371.242C517.543 371.242 524.298 366.372 524.298 360.364V107.986Z" fill="white"/>
<path d="M577.522 199.364C577.522 193.356 570.767 188.486 562.434 188.486C554.101 188.486 547.346 193.356 547.346 199.364V273.337C547.346 279.345 554.101 284.215 562.434 284.215C570.767 284.215 577.522 279.345 577.522 273.337V199.364Z" fill="white"/>
<path d="M630.746 181.959C630.746 175.951 623.991 171.081 615.659 171.081C607.326 171.081 600.571 175.951 600.571 181.959V286.391C600.571 292.399 607.326 297.269 615.659 297.269C623.991 297.269 630.746 292.399 630.746 286.391V181.959Z" fill="white"/>
<path d="M683.971 203.716C683.971 197.708 677.216 192.837 668.883 192.837C660.55 192.837 653.795 197.708 653.795 203.716V264.634C653.795 270.642 660.55 275.513 668.883 275.513C677.216 275.513 683.971 270.642 683.971 264.634V203.716Z" fill="white"/>
<path d="M737.195 216.77C737.195 210.762 730.44 205.891 722.107 205.891C713.775 205.891 707.02 210.762 707.02 216.77V247.229C707.02 253.237 713.775 258.107 722.107 258.107C730.44 258.107 737.195 253.237 737.195 247.229V216.77Z" fill="white"/>
<path d="M790.42 229.824C790.42 223.816 783.664 218.945 775.332 218.945C766.999 218.945 760.244 223.816 760.244 229.824V234.175C760.244 240.183 766.999 245.053 775.332 245.053C783.664 245.053 790.42 240.183 790.42 234.175V229.824Z" fill="white"/>
</g>
<path d="M129.28 499V407.93H108.425V393.977H164.088V407.93H143.233V499H129.28ZM191.342 499C188.241 499 185.641 497.95 183.54 495.849C181.44 493.749 180.39 491.148 180.39 488.048V423.984H194.493V479.496C194.493 480.896 195.043 482.146 196.143 483.247C197.243 484.347 198.494 484.897 199.894 484.897H208.596V423.984H222.699V499H191.342ZM266.854 499L252.751 423.984H266.854L273.906 461.492L280.957 423.984H295.061L280.957 499H266.854ZM333.053 499C330.052 499 327.452 497.95 325.251 495.849C323.151 493.649 322.1 491.048 322.1 488.048V434.786C322.1 431.785 323.151 429.235 325.251 427.134C327.452 425.034 330.052 423.984 333.053 423.984H353.457C356.558 423.984 359.159 425.034 361.259 427.134C363.359 429.235 364.41 431.785 364.41 434.786V457.591C364.41 460.592 363.359 463.192 361.259 465.393C359.159 467.493 356.558 468.543 353.457 468.543H336.204V479.496C336.204 480.996 336.704 482.296 337.704 483.397C338.804 484.397 340.154 484.897 341.755 484.897H361.259L364.41 499H333.053ZM336.204 454.44H344.905C346.406 454.44 347.656 453.94 348.656 452.94C349.757 451.84 350.307 450.539 350.307 449.039V443.488C350.307 441.987 349.757 440.737 348.656 439.737C347.656 438.637 346.406 438.087 344.905 438.087H341.755C340.154 438.087 338.804 438.637 337.704 439.737C336.704 440.737 336.204 441.987 336.204 443.488V454.44ZM396.521 499V423.984H427.878C430.779 423.984 433.33 425.034 435.53 427.134C437.731 429.235 438.831 431.785 438.831 434.786V499H424.728V443.488C424.728 441.887 424.178 440.587 423.077 439.587C421.977 438.587 420.727 438.087 419.326 438.087H410.625V499H396.521ZM516.142 499.15L537.297 394.127H550.95L571.804 499.15H557.851L553.801 479.496H533.846L530.095 499.15H516.142ZM536.547 465.693H551.4L544.198 428.334L536.547 465.693ZM612.958 499C609.857 499 607.257 497.95 605.156 495.849C603.056 493.749 602.006 491.148 602.006 488.048V423.984H616.109V479.496C616.109 480.896 616.659 482.146 617.759 483.247C618.859 484.347 620.11 484.897 621.51 484.897H630.212V423.984H644.315V499H612.958ZM686.89 499C683.79 499 681.189 497.95 679.089 495.849C676.988 493.749 675.938 491.148 675.938 488.048V434.936C675.938 431.835 676.988 429.235 679.089 427.134C681.189 425.034 683.79 423.984 686.89 423.984H704.144V389.776L718.247 386.475V499H686.89ZM695.442 484.897H704.144V438.087H695.442C694.042 438.087 692.792 438.587 691.691 439.587C690.591 440.587 690.041 441.887 690.041 443.488V479.496C690.041 480.896 690.591 482.146 691.691 483.247C692.792 484.347 694.042 484.897 695.442 484.897ZM749.87 403.879V389.776L763.973 386.475V400.578L749.87 403.879ZM750.17 499V427.284L764.273 423.984V499H750.17ZM810.901 499C807.8 499 805.199 497.95 803.099 495.849C800.999 493.649 799.948 491.048 799.948 488.048V434.936C799.948 431.935 800.999 429.385 803.099 427.284C805.199 425.084 807.8 423.984 810.901 423.984H831.305C834.306 423.984 836.856 425.084 838.957 427.284C841.057 429.385 842.108 431.935 842.108 434.936V488.048C842.108 491.048 841.057 493.649 838.957 495.849C836.856 497.95 834.306 499 831.305 499H810.901ZM819.453 484.897H822.603C824.104 484.897 825.404 484.397 826.504 483.397C827.604 482.296 828.154 480.996 828.154 479.496V443.488C828.154 441.987 827.604 440.737 826.504 439.737C825.404 438.637 824.104 438.087 822.603 438.087H819.453C817.952 438.087 816.652 438.637 815.552 439.737C814.551 440.737 814.051 441.987 814.051 443.488V479.496C814.051 480.996 814.551 482.296 815.552 483.397C816.652 484.397 817.952 484.897 819.453 484.897Z" fill="white"/>
<path d="M222.606 571C221.255 571 220.107 570.527 219.161 569.582C218.216 568.636 217.743 567.488 217.743 566.137V555.872L224.024 557.29V562.288C224.024 562.963 224.249 563.548 224.699 564.044C225.195 564.494 225.78 564.719 226.455 564.719H234.155C234.785 564.719 235.348 564.494 235.843 564.044C236.338 563.548 236.586 562.963 236.586 562.288V523.724H242.799V566.137C242.799 567.488 242.327 568.636 241.381 569.582C240.435 570.527 239.31 571 238.004 571H222.606ZM257.224 571C255.828 571 254.658 570.527 253.712 569.582C252.767 568.591 252.294 567.421 252.294 566.07V542.162C252.294 540.811 252.767 539.663 253.712 538.717C254.658 537.727 255.828 537.232 257.224 537.232H266.409C267.76 537.232 268.908 537.727 269.854 538.717C270.799 539.663 271.272 540.811 271.272 542.162V566.07C271.272 567.421 270.799 568.591 269.854 569.582C268.908 570.527 267.76 571 266.409 571H257.224ZM261.074 564.652H262.492C263.167 564.652 263.753 564.426 264.248 563.976C264.743 563.481 264.991 562.896 264.991 562.22V546.011C264.991 545.336 264.743 544.773 264.248 544.323C263.753 543.828 263.167 543.58 262.492 543.58H261.074C260.398 543.58 259.813 543.828 259.318 544.323C258.868 544.773 258.642 545.336 258.642 546.011V562.22C258.642 562.896 258.868 563.481 259.318 563.976C259.813 564.426 260.398 564.652 261.074 564.652ZM279.028 571V537.232H293.143C294.449 537.232 295.597 537.704 296.588 538.65C297.578 539.595 298.073 540.744 298.073 542.094V571H291.725V546.011C291.725 545.291 291.477 544.706 290.982 544.255C290.487 543.805 289.924 543.58 289.294 543.58H285.376V571H279.028ZM310.001 571C308.65 571 307.48 570.527 306.489 569.582C305.544 568.636 305.071 567.466 305.071 566.07V555.872C305.071 554.521 305.544 553.373 306.489 552.427C307.48 551.437 308.65 550.942 310.001 550.942H315.269C315.989 550.942 316.575 550.716 317.025 550.266C317.52 549.771 317.768 549.186 317.768 548.51V546.011C317.768 545.336 317.52 544.773 317.025 544.323C316.575 543.828 315.989 543.58 315.269 543.58H307.975L309.393 537.232H319.186C320.537 537.232 321.685 537.727 322.63 538.717C323.621 539.663 324.116 540.811 324.116 542.162V571H310.001ZM313.851 564.652H317.768V557.29H313.851C313.175 557.29 312.59 557.538 312.095 558.033C311.644 558.483 311.419 559.046 311.419 559.721V562.22C311.419 562.896 311.644 563.481 312.095 563.976C312.59 564.426 313.175 564.652 313.851 564.652ZM336.46 571C335.109 571 333.961 570.527 333.016 569.582C332.07 568.591 331.597 567.421 331.597 566.07V560.464H337.878V562.22C337.878 562.896 338.126 563.481 338.621 563.976C339.117 564.426 339.702 564.652 340.377 564.652H341.796C342.471 564.652 343.034 564.426 343.484 563.976C343.979 563.481 344.227 562.896 344.227 562.22V559.721C344.227 559.046 343.979 558.483 343.484 558.033C343.034 557.538 342.471 557.29 341.796 557.29H336.46C335.109 557.29 333.961 556.817 333.016 555.872C332.07 554.881 331.597 553.711 331.597 552.36V542.162C331.597 540.811 332.07 539.663 333.016 538.717C333.961 537.727 335.109 537.232 336.46 537.232H345.713C347.063 537.232 348.212 537.727 349.157 538.717C350.103 539.663 350.575 540.811 350.575 542.162V547.767H344.227V546.011C344.227 545.336 343.979 544.773 343.484 544.323C343.034 543.828 342.471 543.58 341.796 543.58H340.377C339.702 543.58 339.117 543.828 338.621 544.323C338.126 544.773 337.878 545.336 337.878 546.011V548.51C337.878 549.186 338.126 549.771 338.621 550.266C339.117 550.716 339.702 550.942 340.377 550.942H345.713C347.063 550.942 348.212 551.437 349.157 552.427C350.103 553.373 350.575 554.521 350.575 555.872V566.34C350.53 567.601 350.035 568.704 349.09 569.649C348.144 570.55 347.018 571 345.713 571H336.46ZM364.24 587.817C362.979 587.817 361.854 587.344 360.863 586.398C359.873 585.453 359.377 584.305 359.377 582.954V525.413C359.377 524.017 359.873 522.846 360.863 521.901C361.854 520.955 362.979 520.482 364.24 520.482H398.751C400.102 520.482 401.25 520.955 402.196 521.901C403.141 522.846 403.614 524.017 403.614 525.413V566.07C403.614 567.466 403.141 568.636 402.196 569.582C401.25 570.527 400.102 571 398.751 571H376.869C375.609 571 374.483 570.527 373.492 569.582C372.502 568.636 372.007 567.466 372.007 566.07V542.229C372.007 540.879 372.502 539.73 373.492 538.785C374.483 537.839 375.609 537.367 376.869 537.367H390.985V564.652H394.902C395.622 564.652 396.207 564.404 396.658 563.909C397.108 563.413 397.333 562.851 397.333 562.22V529.262C397.333 528.542 397.108 527.957 396.658 527.506C396.207 527.056 395.622 526.831 394.902 526.831H368.09C367.459 526.831 366.896 527.056 366.401 527.506C365.906 527.957 365.658 528.542 365.658 529.262V579.037C365.658 579.667 365.906 580.23 366.401 580.725C366.896 581.221 367.459 581.468 368.09 581.468H397.198L395.712 587.817H364.24ZM380.786 564.652H384.636V543.648H380.786C380.156 543.648 379.593 543.873 379.098 544.323C378.603 544.773 378.355 545.381 378.355 546.146V562.22C378.355 562.851 378.603 563.413 379.098 563.909C379.593 564.404 380.156 564.652 380.786 564.652ZM423.021 571V530.005H413.633V523.724H438.689V530.005H429.302V571H423.021ZM444.204 571C442.808 571 441.638 570.527 440.692 569.582C439.747 568.636 439.274 567.466 439.274 566.07V537.232H445.622V562.22C445.622 562.851 445.87 563.413 446.365 563.909C446.86 564.404 447.423 564.652 448.054 564.652H451.971V537.232H458.319V571H444.204ZM471.442 571L465.094 537.232H471.442L474.616 554.116L477.79 537.232H484.139L477.79 571H471.442ZM494.487 571C493.137 571 491.966 570.527 490.975 569.582C490.03 568.591 489.557 567.421 489.557 566.07V542.094C489.557 540.744 490.03 539.595 490.975 538.65C491.966 537.704 493.137 537.232 494.487 537.232H503.672C505.068 537.232 506.239 537.704 507.184 538.65C508.13 539.595 508.603 540.744 508.603 542.094V552.36C508.603 553.711 508.13 554.881 507.184 555.872C506.239 556.817 505.068 557.29 503.672 557.29H495.906V562.22C495.906 562.896 496.131 563.481 496.581 563.976C497.076 564.426 497.684 564.652 498.404 564.652H507.184L508.603 571H494.487ZM495.906 550.942H499.823C500.498 550.942 501.061 550.716 501.511 550.266C502.006 549.771 502.254 549.186 502.254 548.51V546.011C502.254 545.336 502.006 544.773 501.511 544.323C501.061 543.828 500.498 543.58 499.823 543.58H498.404C497.684 543.58 497.076 543.828 496.581 544.323C496.131 544.773 495.906 545.336 495.906 546.011V550.942ZM516.304 571V537.232H530.419C531.725 537.232 532.873 537.704 533.863 538.65C534.854 539.595 535.349 540.744 535.349 542.094V571H529.001V546.011C529.001 545.291 528.753 544.706 528.258 544.255C527.763 543.805 527.2 543.58 526.569 543.58H522.652V571H516.304ZM541.131 571.068L550.654 523.792H556.8L566.187 571.068H559.906L558.083 562.22H549.1L547.412 571.068H541.131ZM550.316 556.007H557.002L553.76 539.19L550.316 556.007ZM577.959 571C576.563 571 575.392 570.527 574.447 569.582C573.501 568.636 573.028 567.466 573.028 566.07V537.232H579.377V562.22C579.377 562.851 579.625 563.413 580.12 563.909C580.615 564.404 581.178 564.652 581.808 564.652H585.725V537.232H592.074V571H577.959ZM604.485 571C603.09 571 601.919 570.527 600.973 569.582C600.028 568.636 599.555 567.466 599.555 566.07V542.162C599.555 540.766 600.028 539.595 600.973 538.65C601.919 537.704 603.09 537.232 604.485 537.232H612.252V521.833L618.6 520.347V571H604.485ZM608.335 564.652H612.252V543.58H608.335C607.705 543.58 607.142 543.805 606.646 544.255C606.151 544.706 605.904 545.291 605.904 546.011V562.22C605.904 562.851 606.151 563.413 606.646 563.909C607.142 564.404 607.705 564.652 608.335 564.652ZM626.082 528.182V521.833L632.43 520.347V526.696L626.082 528.182ZM626.217 571V538.717L632.565 537.232V571H626.217ZM646.801 571C645.405 571 644.234 570.527 643.289 569.582C642.343 568.591 641.871 567.421 641.871 566.07V542.162C641.871 540.811 642.343 539.663 643.289 538.717C644.234 537.727 645.405 537.232 646.801 537.232H655.986C657.336 537.232 658.485 537.727 659.43 538.717C660.376 539.663 660.848 540.811 660.848 542.162V566.07C660.848 567.421 660.376 568.591 659.43 569.582C658.485 570.527 657.336 571 655.986 571H646.801ZM650.65 564.652H652.069C652.744 564.652 653.329 564.426 653.825 563.976C654.32 563.481 654.567 562.896 654.567 562.22V546.011C654.567 545.336 654.32 544.773 653.825 544.323C653.329 543.828 652.744 543.58 652.069 543.58H650.65C649.975 543.58 649.39 543.828 648.894 544.323C648.444 544.773 648.219 545.336 648.219 546.011V562.22C648.219 562.896 648.444 563.481 648.894 563.976C649.39 564.426 649.975 564.652 650.65 564.652ZM669.704 571V564.652H676.052V571H669.704ZM685.766 571V537.232H699.881C701.187 537.232 702.335 537.704 703.325 538.65C704.316 539.595 704.811 540.744 704.811 542.094V571H698.463V546.011C698.463 545.291 698.215 544.706 697.72 544.255C697.225 543.805 696.662 543.58 696.031 543.58H692.114V571H685.766ZM716.62 571C715.224 571 714.053 570.527 713.108 569.582C712.162 568.591 711.689 567.421 711.689 566.07V542.162C711.689 540.811 712.162 539.663 713.108 538.717C714.053 537.727 715.224 537.232 716.62 537.232H725.805C727.155 537.232 728.303 537.727 729.249 538.717C730.194 539.663 730.667 540.811 730.667 542.162V566.07C730.667 567.421 730.194 568.591 729.249 569.582C728.303 570.527 727.155 571 725.805 571H716.62ZM720.469 564.652H721.887C722.563 564.652 723.148 564.426 723.643 563.976C724.139 563.481 724.386 562.896 724.386 562.22V546.011C724.386 545.336 724.139 544.773 723.643 544.323C723.148 543.828 722.563 543.58 721.887 543.58H720.469C719.794 543.58 719.208 543.828 718.713 544.323C718.263 544.773 718.038 545.336 718.038 546.011V562.22C718.038 562.896 718.263 563.481 718.713 563.976C719.208 564.426 719.794 564.652 720.469 564.652Z" fill="white"/>
<defs>
<clipPath id="clip0_103_6">
<rect width="734.494" height="406.03" fill="white" transform="translate(207.302)"/>
</clipPath>
</defs>
</svg>
